<?xml version="1.0" standalone="no"?><!DOCTYPE svg PUBLIC "-//W3C//DTD SVG 1.1//EN" "http://www.w3.org/Graphics/SVG/1.1/DTD/svg11.dtd"><svg t="1770300071155" class="icon" viewBox="0 0 1024 1024" version="1.1" xmlns="http://www.w3.org/2000/svg" p-id="81718" xmlns:xlink="http://www.w3.org/1999/xlink" width="200" height="200"><path d="M715.674 626.586l-179.61 235.008c-14.234 18.432-37.478 18.432-51.61 0L304.23 626.586C260.813 576 233.472 508.21 233.472 435.405c0-158.106 124.314-286.31 277.709-286.31S788.89 277.298 788.89 435.404c0.102 74.752-27.75 140.185-73.216 191.18z m-204.39-416.973c-121.038 0-219.034 101.069-219.034 225.792s97.996 225.792 219.033 225.792c120.935 0 219.034-101.069 219.034-225.792s-98.1-225.792-219.034-225.792z m0 82.33" fill="" p-id="81719"></path><path d="M431.514 356.966l-23.655 13.62s47.719 33.792 57.754 41.37l59.597-34.202-93.696-20.788z m-71.988 130.56L323.994 460.8l20.07-11.571s21.504 6.144 34.509 11.366c17.51 6.963 40.653-12.185 59.904-22.016L593.1 349.184c10.957-6.349 22.937-10.342 34.713-12.595 21.197-3.994 37.786-2.663 48.538 0.41 4.813 1.433 7.168 3.174 7.987 5.12 5.223 11.878-16.998 32.255-30.617 40.14l-58.676 33.895-76.39 161.996-23.654 13.722s7.577-64.512 8.704-77.312c0.921-11.878 3.788-28.467-4.404-42.803l-52.019 25.293c-11.161 5.427-23.654 7.884-36.25 7.065l-9.625-0.614c-14.848-1.127-29.491-6.656-41.882-15.975z m0 0" fill="" p-id="81720"></path></svg>