<?xml version="1.0" standalone="no"?><!DOCTYPE svg PUBLIC "-//W3C//DTD SVG 1.1//EN" "http://www.w3.org/Graphics/SVG/1.1/DTD/svg11.dtd"><svg t="1770300474533" class="icon" viewBox="0 0 1285 1024" version="1.1" xmlns="http://www.w3.org/2000/svg" p-id="89015" xmlns:xlink="http://www.w3.org/1999/xlink" width="250.9765625" height="200"><path d="M279.079537 619.639559l850.88946-226.744665q47.604695-12.904581 84.337026-38.713743 36.732331-25.809162 53.091682-59.289945 16.359351-33.480783 3.454769-68.688951-11.888472-32.261453-44.403952-48.417582-32.51548-16.105324-75.192046-16.867405-42.676567-0.711276-85.353135 13.666663L767.827842 276.80447q-15.394047 4.928127-28.552656 4.216851-13.158608-0.762082-30.991316-9.195784L292.441367 75.360912q-20.830229-9.449811-41.660458-3.505575l-34.242865 10.46592q-8.941757 2.946715-10.923169 11.888472-1.981412 8.941757 5.944237 17.37546l284.307225 301.63188 9.449812-47.147446-251.08047 86.369243 97.241606 2.946715-290.708711-103.135037q-9.957866-3.556381-19.102844-1.524163-9.144979 1.981412-19.102844 10.923169l-14.377939 13.36183Q0.716548 381.46367 0.462521 389.897373q-0.254027 8.433703 5.741014 14.885993l174.110233 195.499322q17.375459 19.306066 42.42254 23.573723 25.04708 4.216851 56.343229-4.216852zM97.4501 952.008729h1070.724586q16.359351 0 28.247823-11.939278 11.939278-11.888472 11.939278-28.247823 0-16.410156-11.939278-28.044601-11.888472-11.685251-28.247823-11.685251H97.4501q-16.359351 0-27.993796 11.685251-11.685251 11.685251-11.68525 28.044601 0 16.359351 11.68525 28.247823 11.685251 11.939278 27.993796 11.939278z" fill="#000000" fill-opacity="0.85" p-id="89016"></path></svg>