<?xml version="1.0" standalone="no"?><!DOCTYPE svg PUBLIC "-//W3C//DTD SVG 1.1//EN" "http://www.w3.org/Graphics/SVG/1.1/DTD/svg11.dtd"><svg t="1770301222274" class="icon" viewBox="0 0 1024 1024" version="1.1" xmlns="http://www.w3.org/2000/svg" p-id="118368" xmlns:xlink="http://www.w3.org/1999/xlink" width="200" height="200"><path d="M926.55 439.637H715.775a196.779 196.779 0 0 0-139.264-139.093l-4.267-34.133L626.347 256a45.568 45.568 0 0 0 32.426-24.235 39.936 39.936 0 0 0-35.669-57.685h-62.123v-2.219a48.981 48.981 0 0 0-97.28 0v2.39h-62.805a39.936 39.936 0 0 0-35.67 57.685A45.568 45.568 0 0 0 397.654 256l54.102 9.899-4.267 34.133a196.779 196.779 0 0 0-139.264 139.093H97.451a40.619 40.619 0 0 0-2.56 81.067l36.522 2.219a55.979 55.979 0 0 0-6.656 26.112 57.003 57.003 0 0 0 114.006 0 56.32 56.32 0 0 0-3.926-19.456l70.827 4.266C324.267 634.027 411.648 712.704 512 712.704s187.733-78.507 206.336-179.37l70.656-4.267a60.075 60.075 0 0 0-3.925 19.968 57.003 57.003 0 1 0 114.005 0 55.979 55.979 0 0 0-6.656-26.112l36.523-2.219a40.619 40.619 0 0 0-2.56-81.067zM181.76 571.904a22.87 22.87 0 1 1 23.04-22.87 22.87 22.87 0 0 1-23.04 22.87z m660.48 0a22.87 22.87 0 1 1 22.87-22.87 22.87 22.87 0 0 1-22.87 22.87zM623.104 208.896a5.29 5.29 0 0 1 4.779 2.73 5.632 5.632 0 0 1 0 5.633 10.923 10.923 0 0 1-8.022 5.802l-52.053 9.558-2.901-23.723z m-219.307 14.165a10.923 10.923 0 0 1-8.021-5.802 5.632 5.632 0 0 1 0-5.632 5.29 5.29 0 0 1 4.779-2.731h57.856l-2.902 23.723z m93.355-46.592a15.019 15.019 0 0 1 29.696 0l14.507 117.078a230.4 230.4 0 0 0-58.71 0zM96.939 486.571a6.315 6.315 0 0 1-5.974-6.315 6.485 6.485 0 0 1 6.486-6.485h204.8v24.917zM512 678.57c-93.867 0-176.299-87.723-176.299-187.734 0-94.037 75.776-164.864 176.299-164.864S688.299 396.8 688.299 490.837c0 100.011-82.432 187.734-176.299 187.734z m415.061-192l-204.8 12.288V473.77h204.8a6.485 6.485 0 0 1 6.486 6.485 6.315 6.315 0 0 1-6.486 6.315z" fill="#8a8a8a" p-id="118369"></path><path d="M586.923 400.043H437.077a40.96 40.96 0 0 0-32.256 15.53 137.387 137.387 0 0 0-26.282 51.2 41.813 41.813 0 0 0 7.338 36.352 40.619 40.619 0 0 0 32.598 16.043h187.733a40.619 40.619 0 0 0 32.597-16.043 41.813 41.813 0 0 0 7.339-36.352 137.387 137.387 0 0 0-26.283-51.2 40.96 40.96 0 0 0-32.938-15.53z m-51.2 34.133v51.2h-46.934v-51.2z m-122.368 48.299a7.339 7.339 0 0 1-1.195-6.827 105.472 105.472 0 0 1 19.627-38.741 7.85 7.85 0 0 1 5.802-2.731h17.067v51.2h-36.181a7.168 7.168 0 0 1-5.632-2.901z m198.314 0a7.168 7.168 0 0 1-5.632 2.73h-36.693v-51.2h17.067a7.85 7.85 0 0 1 5.802 2.731 104.79 104.79 0 0 1 19.627 38.912 7.168 7.168 0 0 1-0.683 6.827z m264.363 207.53a186.539 186.539 0 0 0-159.232 89.43 106.155 106.155 0 0 0-44.885-9.728 108.203 108.203 0 0 0-106.667 90.965h-5.12a17.067 17.067 0 0 0 0 34.133h20.139a17.067 17.067 0 0 0 17.066-17.066 74.07 74.07 0 0 1 115.883-60.928 74.752 74.752 0 0 1 22.187 24.064 17.067 17.067 0 0 0 14.848 8.533 17.067 17.067 0 0 0 8.533-2.39 17.067 17.067 0 0 0 6.144-23.21 109.397 109.397 0 0 0-20.139-25.088 152.576 152.576 0 0 1 131.243-74.581 17.067 17.067 0 0 0 0-34.134z m-386.73 170.667h-30.038a108.032 108.032 0 0 0-106.496-90.965 106.155 106.155 0 0 0-44.885 9.728 186.539 186.539 0 0 0-159.915-89.43 17.067 17.067 0 0 0 0 34.134 152.576 152.576 0 0 1 131.243 74.581 109.397 109.397 0 0 0-20.139 25.088 17.067 17.067 0 0 0 6.144 23.21 17.067 17.067 0 0 0 8.533 2.39 17.067 17.067 0 0 0 14.848-8.533 74.752 74.752 0 0 1 22.187-24.064 73.899 73.899 0 0 1 113.664 43.861h-3.413a17.067 17.067 0 1 0 0 34.133H489.3a17.067 17.067 0 0 0 0-34.133z" fill="#8a8a8a" p-id="118370"></path></svg>