<?xml version="1.0" standalone="no"?><!DOCTYPE svg PUBLIC "-//W3C//DTD SVG 1.1//EN" "http://www.w3.org/Graphics/SVG/1.1/DTD/svg11.dtd"><svg t="1773300180807" class="icon" viewBox="0 0 1024 1024" version="1.1" xmlns="http://www.w3.org/2000/svg" p-id="24187" xmlns:xlink="http://www.w3.org/1999/xlink" width="32" height="32"><path d="M278.656 249.408l-47.488 12.032A7.36 7.36 0 0 1 222.08 256a7.552 7.552 0 0 1 5.504-9.28l44.032-11.136 7.04 13.824z m242.752 536l152-43.136-9.728 38.912c88.256 2.496 165.376-46.4 174.976-155.392-2.88 135.424-72.768 240.256-196.608 241.024l-9.088 36.224-111.552-117.632z m-70.592 52.48c19.136 8.576 36.864 13.76 54.144 18.112 14.272 3.264 28.992 5.376 44.032 6.464l-46.976-49.536a244.608 244.608 0 0 1-106.112-62.272 243.072 243.072 0 0 1-71.232-172.288c0-41.152 10.24-80 28.224-114.048a69.12 69.12 0 0 0-3.2 30.784c1.024 8.64-3.136 20.224 8 27.264 11.264 7.04 22.72 12.16 23.872 17.216 0.896 5.056 1.344 12.032 11.136 17.216 4.864 2.688 11.264 6.4 16 9.28-1.152 1.28-2.112 2.624-3.136 4.032-10.752 14.848-2.24 44.544-0.896 54.592 1.344 9.984 17.984 29.696 27.52 37.056 9.6 7.488 11.904 30.208 11.392 38.528-0.384 8.256 9.984 37.568 9.984 48.448 0 10.944 9.728 39.744 9.728 39.744s7.744 7.424 13.504 8.256c2.624 0.448 3.776-1.6 4.864-5.312l14.72-33.28c4.096-4.864 9.984-9.984 21.504-19.008 21.248-17.024 43.136-66.432 51.904-82.944 8.768-16.576 12.16-20.544 17.024-30.208 4.864-9.472-18.752-13.952-25.28-18.752-6.72-4.8-37.248-17.92-48.128-29.696-10.816-11.776-41.856-23.552-60.736-31.936-14.336-6.336-28.096 2.816-38.592 14.272-5.632-3.904-12.672-9.856-11.52-15.296 2.112-9.088-2.496-23.296-2.88-28.288-0.512-4.992 8-20.224-2.624-16.64-10.624 3.584-33.28 15.744-30.272 2.048 3.136-13.632 6.144-47.488 28.8-43.392 22.72 3.968 15.744 27.264 25.856 24.768 9.984-2.624 16.128-23.744 21.76-30.848 5.376-7.04 34.112-42.432 45.504-45.44 10.88-2.944 16.128-14.08 27.648-21.12 11.52-7.104 22.144 3.52 21.504-20.736-0.192-11.584 0.448-21.376 0.064-28.288a243.52 243.52 0 0 1 142.4 25.408c-8.896 6.208-18.496 14.528-19.904 18.688-2.112 7.36-7.232 23.552-12.096 24.384-4.736 0.896-9.472-2.24-8.64 3.52 0.768 5.696-5.248 17.088-5.248 17.088l-7.616-7.488s5.376 31.04 14.528 31.04c9.28 0 16.128-12.672 21.376-17.536 5.376-4.736 11.392-22.656 17.984-15.296 6.528 7.424 18.624 24.896 24.384 26.24s24.128-1.344 28.032 3.136c3.904 4.288 13.12 11.328 16.128 3.456 1.6-4.16 7.488-12.416 11.904-19.648 26.496 34.24 44.032 75.712 49.024 120.768a370.688 370.688 0 0 1-5.12 98.304c8-16.96 14.72-35.264 17.472-57.024l30.016 1.6a283.52 283.52 0 0 0-82.88-216.192 284.48 284.48 0 0 0-152.448-79.232 284.8 284.8 0 0 0-49.024-4.224c-3.52 0-7.104 0-10.624 0.192a147.2 147.2 0 0 1-36.352 16.384l-59.776 15.232c-27.648 43.072-60.032 80.32-97.472 117.696l-6.272 6.208-8.64 2.304-41.152 11.2a282.88 282.88 0 0 0-24.448 115.52c0 78.656 31.872 149.824 83.392 201.344 24.064 24.128 52.48 43.904 83.968 58.176z m162.624-304s14.528 28.928 22.656 38.592c7.616 9.6 60.992-3.52 68.864-1.792 7.872 1.792 1.472 16.384 10.496 34.944 8.896 18.56 1.6 115.328 14.848 119.744 12.992 4.352 45.376-50.688 51.52-62.848 6.272-12.288 18.368-112.704 18.368-130.24s-47.488-62.592-51.008-65.216c-3.392-2.688-32.384-2.688-41.856-5.248-9.728-2.56-18.88-12.16-22.72-13.056-3.904-0.96-12.224 1.728-20.48 0.896-8.256-0.896-17.984 5.184-22.72 8.256-4.736 3.008-6.976 12.224-10.624 17.408-3.456 5.248-5.952 8.32-13.824 15.744-7.872 7.424-2.752 14.08-1.408 24.128a40.32 40.32 0 0 1-2.112 18.688zM231.424 290.368l-45.376-40.192-39.104 9.984c6.656 11.328 34.88 102.272 67.904 93.824l92.736-23.616-10.176 100.992c19.52-5.12 23.744-6.528 43.008-11.712 46.4-46.016 84.096-90.88 115.136-149.696l15.36-3.136c-2.88 6.144-10.496 20.224-13.12 25.344l55.36-14.08c15.232-3.904 59.904-28.544 56-43.904-4.096-15.36-54.848-15.808-70.272-11.904l-34.56 8.896-25.856 6.592-131.904 33.472-17.152 4.352-57.984 14.784z m71.232-29.824l-19.2-36.736 49.152-13.184 93.376 18.496-123.328 31.424z m-24.96 141.824l-86.272 21.888a7.488 7.488 0 0 1-9.088-5.504 7.488 7.488 0 0 1 5.376-9.152l91.648-23.296-1.664 16.064z m-3.392 36.032l-83.008 21.12a7.488 7.488 0 0 1-8.96-5.568 7.488 7.488 0 0 1 5.248-9.216l88.384-22.464-1.664 16.128z m6.656-70.592l-89.536 22.784c-3.968 1.024-8-1.408-8.96-5.44s1.344-8.256 5.376-9.28l94.656-24.064-1.536 16z" fill="#ffffff" p-id="24188"></path></svg>