<?xml version="1.0" standalone="no"?><!DOCTYPE svg PUBLIC "-//W3C//DTD SVG 1.1//EN" "http://www.w3.org/Graphics/SVG/1.1/DTD/svg11.dtd"><svg t="1773300325688" class="icon" viewBox="0 0 1024 1024" version="1.1" xmlns="http://www.w3.org/2000/svg" p-id="30553" xmlns:xlink="http://www.w3.org/1999/xlink" width="32" height="32"><path d="M869.123119 855.961866c6.538927 0 11.834536-5.294586 11.834536-11.834536L880.957655 495.019257c0-6.538927-5.296633-11.834536-11.834536-11.834536L531.849582 483.184721c-6.538927 0-11.836583 5.29561-11.836583 11.834536l0 349.108073c0 6.540973 5.298679 11.834536 11.836583 11.834536L869.123119 855.961866zM621.408317 545.199123l88.11178 0c12.585643 0 24.733311 1.242294 36.462446 3.708462 11.713786 2.465145 22.022573 6.598278 30.91715 12.393261 8.877181 5.801123 15.96767 13.583366 21.282722 23.326265 5.296633 9.757225 7.960299 21.905916 7.960299 36.462446 0 16.539698-2.841721 29.863145-8.511861 39.980573-5.681396 10.129708-13.332656 17.959024-22.960944 23.512507-9.625218 5.552459-20.788465 9.31925-33.500998 11.294231-12.713556 1.971911-25.977651 2.957355-39.796378 2.957355L668.0588 698.834222l0 108.467387-46.650483 0L621.408317 545.199123z" fill="#ffffff" p-id="30554"></path><path d="M718.564078 664.561651c0 0 50.366108-2.807952 46.587038-47.720861-3.776-44.915979-56.657394-37.894052-56.657394-37.894052l-30.217209 0c0 0-15.110139-1.39886-13.848403 0 1.254573 1.400906 0 85.614913 0 85.614913L718.564078 664.561651z" fill="#ffffff" p-id="30555"></path><path d="M117.942691 532.568455l126.313847 93.02365 20.178575 16.45067 10.509355 23.880897 56.012711 146.601916 6.053879-4.578272 5.774517 13.34289 29.020964-22.355147 11.133571-161.495114 108.9729-83.139535 0-92.813872c0-7.358595 5.964852-13.323447 13.323447-13.323447l185.986925 0 0.593518-48.858778 111.310132-85.062328 64.581877-49.126884c11.585873-8.746198 18.010189-21.049409 20.260439-34.4363 3.847631-17.501606 0.518816-36.489052-11.401678-51.876508-0.391926-0.514723-0.946558-0.88209-1.38658-1.463328-0.385786-0.505513-0.613984-1.165546-0.991584-1.662873-11.659551-15.59928-29.091572-23.89727-46.984081-24.857131-13.44522-1.322112-27.054169 1.534959-38.560224 10.386558l-64.554248 49.118698-111.684662 84.580351-374.823757-98.832959-58.560744 43.969421 262.460644 182.091198L300.519959 529.020652l-158.63088-32.30066-29.309536 22.021549 11.343349 9.153474L117.942691 532.568455z" fill="#ffffff" p-id="30556"></path></svg>