<?xml version="1.0" standalone="no"?><!DOCTYPE svg PUBLIC "-//W3C//DTD SVG 1.1//EN" "http://www.w3.org/Graphics/SVG/1.1/DTD/svg11.dtd"><svg t="1773298985780" class="icon" viewBox="0 0 1024 1024" version="1.1" xmlns="http://www.w3.org/2000/svg" p-id="1862" xmlns:xlink="http://www.w3.org/1999/xlink" width="32" height="32"><path d="M323.857766 136.627495h-54.448587L238.44028 12.954311A17.002533 17.002533 0 0 0 222.652214 0H187.837504a17.204944 17.204944 0 0 0-17.204944 17.002533v119.624962H82.178908l-14.168777-71.855942a17.204944 17.204944 0 0 0-16.800122-13.561544H17.002533a17.204944 17.204944 0 0 0-17.002533 17.002533v239.047513a16.597711 16.597711 0 0 0 5.060278 11.942255 16.800122 16.800122 0 0 0 11.942255 4.655456h34.207476a17.204944 17.204944 0 0 0 16.800122-13.561544l14.168777-71.855942h88.453652v119.624962a16.597711 16.597711 0 0 0 5.060278 11.942256 17.002533 17.002533 0 0 0 12.144666 5.060277H222.652214a17.002533 17.002533 0 0 0 16.597711-12.954311l30.968898-123.673184H323.857766a51.210009 51.210009 0 1 0 0-102.217607z m-119.422551-102.420018h3.6434l25.70621 102.420018h-28.944788zM37.243643 85.417486L48.578665 141.687773l-14.371188 4.857866v-60.723331z m-3.036166 204.637626v-60.723332l14.371188 4.857867-11.335022 56.675109z m174.27596 51.210009h-3.6434V238.845102h29.34961z m115.374329-136.425084H71.046297l-36.83882-12.347077V182.169993l36.83882-12.347077H323.857766a17.204944 17.204944 0 0 1 0 34.207477z m563.714924 511.897681a68.414953 68.414953 0 1 0 68.212542 68.414953 68.414953 68.414953 0 0 0-68.212542-68.414953z m0 102.420019a34.207477 34.207477 0 1 1 34.005065-34.005066 34.207477 34.207477 0 0 1-34.005065 34.005066z m0 0" fill="#ffffff" p-id="1863"></path><path d="M887.57269 647.715532a136.627495 136.627495 0 0 0-136.627495 136.627495c0 91.489819 119.422551 227.712492 123.673184 233.784824a17.002533 17.002533 0 0 0 25.70621 0c5.060278-5.667511 123.673184-141.687773 123.673184-232.97518A136.627495 136.627495 0 0 0 887.57269 647.715532z m0 331.95421c-37.243643-45.947321-102.420018-138.044373-102.420019-195.326715a102.420018 102.420018 0 1 1 204.840037 0c0 57.282342-65.378786 149.379395-102.420018 195.326715z m-627.474422-429.313951l20.241111 26.920677a149.986628 149.986628 0 0 1 25.908621-16.192889l-14.978422-30.766487a192.897782 192.897782 0 0 0-31.980954 20.24111z m61.937798 328.715632a174.073549 174.073549 0 0 0 36.838821 6.881978l2.833755-34.005066a152.415561 152.415561 0 0 1-30.159254-5.667511z m5.060278-361.708642l8.703677 32.99301a139.46125 139.46125 0 0 1 30.766488-3.845811L364.339987 512.302503a176.502482 176.502482 0 0 0-37.041232 5.869922z m-70.439065 327.703577a190.266437 190.266437 0 0 0 31.17131 20.24111l15.788067-29.552021a166.179516 166.179516 0 0 1-25.706211-17.002533z m2.833756-245.929491l-25.908621-22.265222a202.411104 202.411104 0 0 0-21.657988 30.361666l29.754432 16.800122a152.820383 152.820383 0 0 1 17.812177-25.098977z m608.650189-266.980246l33.600243-5.667511a188.444738 188.444738 0 0 0-9.918144-36.231587l-31.778543 13.359133a152.415561 152.415561 0 0 1 8.096444 29.552021zM209.495492 787.379193a189.051971 189.051971 0 0 0 20.241111 31.17131l26.515854-21.455577a154.03485 154.03485 0 0 1-17.204944-25.70621zM904.575222 364.339987H870.367746a155.85655 155.85655 0 0 1-3.845811 30.564076l33.195421 7.691622a191.480904 191.480904 0 0 0 4.857866-38.255698z m-17.002532 72.665586l-30.968899-14.168777a151.808328 151.808328 0 0 1-15.585655 26.515854l27.730321 20.241111a185.003749 185.003749 0 0 0 18.824233-32.385777z m-91.489819 53.638942l17.812177 29.147199a199.577348 199.577348 0 0 0 29.956843-22.467632l-23.074866-25.70621a170.227738 170.227738 0 0 1-24.694154 18.41941z m-607.233311 188.444738l34.005065 3.845811a148.974572 148.974572 0 0 1 6.477155-29.956844l-32.385776-10.525377a200.184582 200.184582 0 0 0-8.096444 36.63641zM222.652214 712.891907l-34.005065 2.833756a174.073549 174.073549 0 0 0 6.881977 36.83882l32.588188-9.513321a152.21315 152.21315 0 0 1-5.4651-30.159255z m600.148922-509.468748A184.396515 184.396515 0 0 0 789.403304 185.408571l-13.359133 31.373721a163.345761 163.345761 0 0 1 26.718266 14.776011z m52.019654 53.436532a202.411104 202.411104 0 0 0-23.277277-29.34961l-24.491743 23.88451a154.03485 154.03485 0 0 1 19.026643 23.88451z m-121.446662-82.583731a194.112248 194.112248 0 0 0-37.446054-3.6434v34.207477a153.427617 153.427617 0 0 1 30.564076 3.036166zM647.715532 170.63256h34.207476v34.207477H647.715532z m-68.212542 0h34.207476v34.207477h-33.397832z m20.24111 682.732653h34.207477v34.207477h-34.207477z m4.857867-341.265121h34.207476V546.50998h-34.207476z m164.560227-8.906088a148.56975 148.56975 0 0 1-29.754432 7.286799l4.857866 33.802655a188.242326 188.242326 0 0 0 36.433999-9.1085z m-101.205552 350.171209h31.576132v34.207477H667.956642z m4.857867-341.265121h34.005065V546.50998h-33.802654zM463.319016 853.365213h34.005066v34.207477h-34.005066zM536.389425 512.100092h34.207476V546.50998H536.389425z m-136.627495 0h34.207476V546.50998h-34.207476z m-4.857867 341.265121h34.207477v34.207477h-34.207477z m48.781076-682.732653h34.207477v34.207477h-34.207477z m87.846419 682.732653H566.75109v34.207477h-35.219532z m-20.24111-682.732653H546.50998v34.207477h-34.409888zM468.176883 512.100092h34.005065V546.50998h-34.005065z m0 0" fill="#ffffff" p-id="1864"></path></svg>