<?xml version="1.0" standalone="no"?><!DOCTYPE svg PUBLIC "-//W3C//DTD SVG 1.1//EN" "http://www.w3.org/Graphics/SVG/1.1/DTD/svg11.dtd"><svg t="1773884783648" class="icon" viewBox="0 0 1024 1024" version="1.1" xmlns="http://www.w3.org/2000/svg" p-id="14359" xmlns:xlink="http://www.w3.org/1999/xlink" width="32" height="32"><path d="M833.024 104.448H409.088c-43.008 0-77.824 34.816-77.824 77.824v30.208H188.928c-38.4 0-70.144 31.232-70.144 70.144v559.104c0 38.4 31.232 70.144 70.144 70.144h423.936c38.4 0 70.144-31.232 70.144-70.144V819.2h150.016c43.008 0 77.824-34.816 77.824-77.824V181.76c0-42.496-35.328-77.312-77.824-77.312z m-150.016 552.448v-43.52c63.488-38.912 110.08-101.888 127.488-177.664l15.872-66.56c4.096-16.384-1.536-33.792-14.848-44.032-18.432-14.336-45.056-11.776-59.392 6.656l-57.856 68.096c-3.584 4.608-7.68 8.704-11.776 12.8V281.6c0-38.4-31.232-70.144-70.144-70.144H386.56v-30.208c0-12.288 10.24-22.528 22.528-22.528h423.936c12.288 0 22.528 10.24 22.528 22.528v559.104c0 12.288-10.24 22.528-22.528 22.528h-150.016v-105.984z m-124.928-38.4l-16.384 1.536v103.936c0 2.56-1.024 4.096-2.048 4.608s-2.56 2.048-4.608 2.048c-1.536 0-3.072-0.512-4.608-1.536l-178.688-159.232c-2.56-2.56-3.072-6.656-0.512-9.728l0.512-0.512 178.688-152.576c1.536-1.536 3.072-1.536 4.608-1.536h0.512c1.024 0 3.072 0.512 4.608 2.56 1.024 1.024 1.536 2.56 1.536 4.096v98.816l19.968-2.048c62.464-6.656 119.296-36.864 160.256-84.992l57.856-68.096 0.512-0.512c2.048-3.072 6.656-3.584 9.216-1.024 2.048 1.536 3.072 4.608 2.048 7.168l-15.872 67.072c-24.064 103.424-111.104 179.712-217.6 189.952z" fill="#1afa29" p-id="14360"></path></svg>